<svg id="Layer_1" data-name="Layer 1" xmlns="http://www.w3.org/2000/svg" viewBox="0 0 374.429 158.69">
  <defs>
    <style>
      .cls-1 {
        fill: #fff;
      }
    </style>
  </defs>
  <title>inba</title>
  <g>
    <path class="cls-1" d="M274.115,279.813q.008,24.03.016,48.06,0,26.34,0,52.679c0,1.846-.651,2.366-2.439,1.88a1.037,1.037,0,0,1-.592-.644,4.875,4.875,0,0,1-.047-1.241q0-49.621,0-99.242c0-.5.041-1,.062-1.493Z" transform="translate(-118.519 -279.813)"/>
    <path class="cls-1" d="M130.224,279.813c.016.415.045.831.045,1.246q0,49.819,0,99.638c0,1.792-.057,1.785-1.8,1.794-1.537.008-1.211-1.064-1.211-1.917q-.014-49.507-.009-99.013c0-.582-.015-1.165-.023-1.747Z" transform="translate(-118.519 -279.813)"/>
    <path class="cls-1" d="M122.73,279.813c.014.54.04,1.081.04,1.621q0,49.132,0,98.264a2.934,2.934,0,0,1-.05,1.23c-.183.355-.661.8-.979.781a1.712,1.712,0,0,1-1.115-.794c-.186-.305-.048-.81-.048-1.226q0-49.007,0-98.015c0-.621-.061-1.242-.093-1.862Z" transform="translate(-118.519 -279.813)"/>
    <path class="cls-1" d="M280.86,279.813c-.031.621-.089,1.242-.089,1.863q-.006,49.212.006,98.423c0,.963-.006,1.862-1.331,1.585-.32-.067-.621-.5-.806-.838-.124-.224-.029-.57-.029-.861q0-50.086,0-100.172Z" transform="translate(-118.519 -279.813)"/>
    <path class="cls-1" d="M140.716,279.813c-.037.62-.106,1.24-.106,1.86-.005,25.847-.034,51.694.053,77.541.007,2-1.311,2.584-2.256,3.664l-.364-.1v-1.684q0-39.707,0-79.414c0-.622-.047-1.245-.072-1.867Z" transform="translate(-118.519 -279.813)"/>
    <path class="cls-1" d="M263.373,279.813q-.012,10.11-.023,20.22,0,30.768,0,61.536v1.669c-1.364-1.427-2.71-2.2-2.7-4.425.11-25.754.071-51.508.066-77.262,0-.579-.059-1.158-.09-1.737Z" transform="translate(-118.519 -279.813)"/>
    <path class="cls-1" d="M235.394,279.813c.037.62.107,1.24.107,1.86q.014,35.4.016,70.805c0,1.421-.234,1.631-1.539,1.6-.695-.018-.992-.3-.973-.973.011-.374,0-.749,0-1.124q0-35.215,0-70.431c0-.578-.067-1.156-.1-1.735Z" transform="translate(-118.519 -279.813)"/>
    <path class="cls-1" d="M243.888,279.813c-.017.581-.05,1.163-.05,1.744q0,34.882.012,69.764c0,.961-.063,1.6-1.3,1.52-.908-.06-1.229-.361-1.228-1.271q.027-35.631.02-71.262a4.67,4.67,0,0,1,.051-.5Z" transform="translate(-118.519 -279.813)"/>
    <path class="cls-1" d="M159.952,279.813c.023.373.066.745.066,1.118q0,35.2.023,70.407c0,1.111-.268,1.572-1.458,1.526-1.277-.049-1.078-.875-1.078-1.648q0-34.829,0-69.658c0-.582-.032-1.163-.049-1.745Z" transform="translate(-118.519 -279.813)"/>
    <path class="cls-1" d="M149.71,279.813c.019.581.055,1.162.055,1.743q0,35.881.029,71.762c0,1.534-.133,2.735-2.136,2.918-.037-.462-.12-1-.12-1.546q-.01-36.568-.008-73.135c0-.581-.044-1.161-.068-1.742Z" transform="translate(-118.519 -279.813)"/>
    <path class="cls-1" d="M253.88,279.813c-.022.623-.063,1.246-.063,1.869q0,36.4-.007,72.806c0,.559-.07,1.118-.11,1.707-2.173-.589-2.173-.589-2.173-2.589q0-36.028,0-72.057c0-.578.066-1.157.1-1.735Z" transform="translate(-118.519 -279.813)"/>
    <path class="cls-1" d="M168.2,279.813c.029.371.084.743.084,1.114q.006,35.826,0,71.652c0,.747.139,1.543-1.055,1.539-.93,0-1.442-.289-1.359-1.287.007-.083,0-.166,0-.25q0-35.888,0-71.777c0-.331.049-.661.075-.992Z" transform="translate(-118.519 -279.813)"/>
    <path class="cls-1" d="M492.948,434.445c-.113.046-.285.059-.331.142-1.648,2.977-4.411,3.785-7.515,3.695a17.717,17.717,0,0,1-4.763-.752,5.709,5.709,0,0,1-3.569-5.865,20.96,20.96,0,0,1,2.42.035c.25.029.584.439.654.729a3.633,3.633,0,0,0,3.636,3.015,18.5,18.5,0,0,0,4.517-.467,2.394,2.394,0,0,0,1.868-2.618c-.008-1.336-.956-1.9-2.019-2.223-2.067-.619-4.178-1.093-6.251-1.693-3.228-.934-4.48-2.348-4.418-4.87a5.785,5.785,0,0,1,4.842-5.431,11.473,11.473,0,0,1,6.759.418,5.681,5.681,0,0,1,3.425,3.572,1.834,1.834,0,0,1-.272,1.606,2.522,2.522,0,0,1-2.694-.512,5.518,5.518,0,0,0-7.341-2.111c-1.818,1.051-1.889,3.1,0,4.009a22.421,22.421,0,0,0,4.606,1.455c2.395.563,4.7,1.235,6.442,3.122Z" transform="translate(-118.519 -279.813)"/>
    <path class="cls-1" d="M178.438,279.813c.012,2.287.035,4.575.036,6.862,0,16.556-.049,33.113.061,49.669a6.206,6.206,0,0,1-2.514,5.335,10.457,10.457,0,0,1-.118-1.092q-.007-30.076,0-60.152c0-.207.025-.415.038-.622Z" transform="translate(-118.519 -279.813)"/>
    <path class="cls-1" d="M225.4,279.813q.012,22.037.023,44.074,0,8.053,0,16.106c0,.474-.048.948-.088,1.695-1.412-1.444-2.511-2.507-2.5-4.566.1-19.1.065-38.206.07-57.308Z" transform="translate(-118.519 -279.813)"/>
    <path class="cls-1" d="M216.409,279.813c.03.413.085.827.085,1.24q.007,25.285,0,50.57c0,.742.162,1.514-1.036,1.553-1.086.036-1.515-.2-1.512-1.426q.063-25.222.026-50.445c0-.5-.043-1-.066-1.493Z" transform="translate(-118.519 -279.813)"/>
    <path class="cls-1" d="M187.181,279.813c.039.494.112.988.113,1.481q.009,25.21.006,50.419c0,1.456-.185,1.67-1.541,1.411-.34-.065-.625-.565-.869-.911-.1-.14-.021-.4-.021-.613q0-25.334,0-50.669c0-.373.04-.746.061-1.119Z" transform="translate(-118.519 -279.813)"/>
    <path class="cls-1" d="M197.673,279.813c-.037.495-.1.99-.1,1.484-.007,6.327-.042,12.655.026,18.981.014,1.344-.588,1.461-1.657,1.468s-1.541-.23-1.531-1.454c.056-6.826.022-13.653.019-20.48Z" transform="translate(-118.519 -279.813)"/>
    <path class="cls-1" d="M206.916,279.813c0,6.823-.022,13.645.014,20.468.006,1.049-.237,1.513-1.383,1.467-1.045-.042-1.706-.116-1.692-1.469.07-6.822.051-13.644.063-20.466Z" transform="translate(-118.519 -279.813)"/>
    <path class="cls-1" d="M201.546,410.925q-6.493,0-12.987,0c-1.668,0-1.671,0-1.671-1.623q0-8.117,0-16.234c0-1.651-.011-1.665-1.677-1.653-2.5.017-2.328-.339-2.329,2.357,0,5.286-.021,10.573.017,15.859.007.955-.24,1.316-1.253,1.317-3.013,0-3.013.045-3.013-3.012,0-5.161-.1-10.325.023-15.484.183-7.9,3.4-14.314,9.938-18.839,4.227-2.926,9.11-3.715,14.154-3.507,5.813.239,11.145,1.82,15.416,6.024,3.949,3.887,5.4,8.819,5.508,14.16.135,6.491.018,12.986.054,19.48.005.942-.3,1.226-1.22,1.194-3.263-.11-2.757.373-2.774-2.8-.026-5.078.01-10.157-.034-15.234,0-.49-.333-1.356-.6-1.4a8.807,8.807,0,0,0-2.8.14c-.153.028-.233.82-.235,1.26-.016,5.494-.046,10.989.016,16.483.014,1.213-.345,1.556-1.543,1.538C210.2,410.885,205.875,410.925,201.546,410.925Zm-.374-23.255c5.488,0,10.977-.016,16.465.015.97.005,1.4-.247,1.184-1.288a15.9,15.9,0,0,0-3.55-7.575,16.689,16.689,0,0,0-9.463-5.117,20.77,20.77,0,0,0-12.589,1.057c-5.07,2.155-8.007,6.134-9.426,11.352-.411,1.512-.4,1.552,1.163,1.553Q193.064,387.675,201.171,387.67Z" transform="translate(-118.519 -279.813)"/>
    <path class="cls-1" d="M194.948,307.352a26.547,26.547,0,0,1,2.5,2.246c1.061,1.213,1.526,1.283,2.591.114.663-.728,1.277-.607,1.859.147a1.622,1.622,0,0,0,2.771-.062,5.646,5.646,0,0,1,3.3-2.556c-.458.653-.715,1.049-1,1.423-1.341,1.747-2.626,3.544-4.056,5.216-1.416,1.656-.827,3.551-.83,5.37,0,.258.6.641.984.752a2.036,2.036,0,0,1,1.622,2.2c-.007,1.789.036,3.58-.014,5.368-.025.9.245,1.245,1.2,1.246,2.528,0,2.527.044,2.527,2.613,0,2.7.036,2.579,2.637,3.36a20.758,20.758,0,0,1,14.289,13.788c.408,1.173.671,2.4,1,3.6.246.9.069,1.4-1.041,1.4q-24.1-.032-48.191-.01c-.734,0-1.242-.11-1.03-1.048,1.19-5.27,3.4-9.972,7.556-13.586a21,21,0,0,1,9.173-4.537,1.144,1.144,0,0,0,1.053-1.37c-.051-1.038.02-2.081-.022-3.12-.031-.773.192-1.168,1.048-1.114,2.161.136,1.912-.148,1.924-2.012.009-1.373-.009-2.747.008-4.12.015-1.234.279-2.314,1.675-2.74.27-.082.654-.429.655-.656.009-1.716.471-3.477-.56-5.1-1.351-2.127-2.641-4.293-3.957-6.442Z" transform="translate(-118.519 -279.813)"/>
    <path class="cls-1" d="M201.8,437.164c-4.16,0-8.321-.039-12.481.025-1.223.019-1.677-.293-1.663-1.6.064-5.865.055-11.732.005-17.6-.01-1.188.338-1.569,1.553-1.562q12.605.072,25.211,0c1.3-.009,1.61.416,1.6,1.645q-.083,8.8,0,17.6c.01,1.146-.344,1.526-1.493,1.512C210.287,437.132,206.043,437.163,201.8,437.164Z" transform="translate(-118.519 -279.813)"/>
    <path class="cls-1" d="M246.889,417.426c6.2,0,12.4.025,18.6-.022,1.19-.009,1.578.348,1.566,1.561-.057,5.575-.023,11.15-.027,16.725a1.521,1.521,0,0,1-2.375,1.476,1.7,1.7,0,0,1-.48-1.265c-.045-2.829-.2-5.671.008-8.484.311-4.185-3.549-7.181-6.918-7.346-3.853-.189-7.184,1.863-8.111,5.231a9.085,9.085,0,0,0-.219,2.22c-.052,2.787-.121,5.576-.078,8.362.019,1.221-.424,1.547-1.6,1.538q-9.61-.074-19.222,0c-1.118.008-1.533-.285-1.516-1.464q.123-8.611.094-17.224c0-1.206.481-1.47,1.561-1.465,6.241.033,12.482.016,18.722.016Z" transform="translate(-118.519 -279.813)"/>
    <path class="cls-1" d="M163.555,437.2h-9.242c-1.8,0-1.8,0-1.81-1.743-.016-2.748-.173-5.5-.009-8.241.188-3.136-2.266-5.986-4.937-6.921a8,8,0,0,0-9.268,3.01,6.76,6.76,0,0,0-1.025,3.232c-.135,3.117-.088,6.244-.025,9.365.021,1.041-.381,1.29-1.318,1.25-.854-.036-1.523-.01-1.513-1.221.047-5.787.037-11.574.006-17.36-.005-.973.335-1.314,1.306-1.317q18.859-.051,37.719-.166c.981-.006,1.3.342,1.3,1.31q-.019,8.805.056,17.61c.008.949-.352,1.215-1.249,1.205C170.216,437.177,166.885,437.2,163.555,437.2Z" transform="translate(-118.519 -279.813)"/>
    <path class="cls-1" d="M180.812,374.45c-1.315,1.881-2.494,3.479-3.57,5.145a9.05,9.05,0,0,0-1.264,2.685c-.222.916-.666,1.1-1.474,1.094-3-.022-5.994-.006-8.991-.006-4,0-7.993-.018-11.988.014a2.758,2.758,0,0,1-2.2-.874c-3.128-3.192-9.564-3.1-12.709.12-.613.628-3.04,1.084-3.712.628a1.151,1.151,0,0,1-.373-.836c-.03-2.372-.008-4.745-.024-7.118,0-.686.283-1,.971-.968.291.015.583,0,.874,0q21.292,0,42.584,0C179.5,374.339,180.061,374.4,180.812,374.45Z" transform="translate(-118.519 -279.813)"/>
    <path class="cls-1" d="M221.868,374.3c.8-.067,1.235-.134,1.668-.134q21.652-.008,43.3-.024c1.107,0,1.575.27,1.529,1.465-.084,2.16-.057,4.326-.008,6.488.02.881-.3,1.118-1.156,1.156a4.671,4.671,0,0,1-3.657-1.285c-3.16-2.836-9.414-2.528-12.23.512a2.589,2.589,0,0,1-1.706.715c-7.113.048-14.226.023-21.34.043-.762,0-1.031-.259-1.409-.98-1.186-2.263-2.606-4.4-3.95-6.583C222.681,375.293,222.378,374.961,221.868,374.3Z" transform="translate(-118.519 -279.813)"/>
    <path class="cls-1" d="M174.827,399.474c0,3.413-.056,6.827.028,10.238.033,1.33-.709,1.241-1.577,1.218s-1.709.2-1.691-1.243c.071-5.784,0-11.571.052-17.355.01-1.157-.255-1.6-1.51-1.58q-6.179.115-12.36,0c-1.248-.022-1.523.415-1.512,1.578.053,5.743-.005,11.487.049,17.231.011,1.123-.34,1.419-1.422,1.387-2.55-.077-2.211.1-2.216-2.23-.012-5.494-.032-10.988.019-16.482.011-1.157-.358-1.5-1.5-1.48-4.328.059-8.658.068-12.985,0-1.248-.021-1.52.416-1.509,1.578.053,5.785.01,11.571.039,17.356,0,.869-.158,1.3-1.157,1.265-.818-.032-1.083-.3-1.074-1.108.033-2.955.013-5.91.013-8.865,0-3.912.05-7.826-.028-11.737-.026-1.292.4-1.689,1.647-1.592,1.283.1,2.585-.055,3.867.046a1.772,1.772,0,0,0,2.054-1.289,3.455,3.455,0,0,1,4.559-2.139,3.1,3.1,0,0,1,2.312,2.233c.281,1.021.862,1.194,1.811,1.19,7.45-.034,14.9-.019,22.35-.019,1.736,0,1.74,0,1.742,1.687Q174.831,394.417,174.827,399.474Z" transform="translate(-118.519 -279.813)"/>
    <path class="cls-1" d="M239.362,387.915c3.745,0,7.49-.03,11.235.02.971.013,1.55-.227,1.847-1.215a3.383,3.383,0,0,1,3.368-2.48,3.27,3.27,0,0,1,3.556,2.363,1.741,1.741,0,0,0,2.026,1.33c1.369-.073,2.747.028,4.118-.033,1.031-.045,1.386.347,1.381,1.376q-.046,10.236,0,20.472c0,.888-.255,1.276-1.206,1.27s-1.079-.46-1.076-1.248c.02-5.576.011-11.152.011-16.727,0-2.139,0-2.139-2.2-2.139-4.119,0-8.239.028-12.358-.019-1.042-.012-1.373.35-1.367,1.37.032,5.784-.011,11.568.038,17.351.009,1.095-.3,1.554-1.408,1.4a4.1,4.1,0,0,0-1,0c-.978.1-1.3-.311-1.29-1.29.037-5.451.016-10.9.018-16.353,0-2.874.076-2.437-2.514-2.45-3.786-.018-7.574.033-11.359-.026-1.162-.018-1.5.385-1.5,1.516.044,5.742-.021,11.485.052,17.226.016,1.288-.537,1.428-1.562,1.389-.943-.036-1.745.133-1.728-1.344.075-6.782.054-13.565.012-20.347-.007-1.085.308-1.447,1.415-1.43C231.705,387.951,235.534,387.915,239.362,387.915Z" transform="translate(-118.519 -279.813)"/>
    <path class="cls-1" d="M311.228,423.231a5.193,5.193,0,0,0,.96.687c4.985,1.943,5.017,9.212.522,12a10.371,10.371,0,0,1-4.64,1.571c-4.108.241-8.238.117-12.358.165-.883.01-1.13-.375-1.128-1.212q.032-12.052,0-24.1c0-.943.261-1.351,1.269-1.339,3.538.043,7.078-.026,10.616.04a9.332,9.332,0,0,1,5.782,1.648,6.173,6.173,0,0,1-.311,10.032C311.742,422.855,311.553,423,311.228,423.231Zm-7.936,1.731-.018.174c-1.33,0-2.661.014-3.991-.006-.64-.009-1.045.173-1.043.9.007,2.577-.025,5.156.038,7.732a1.169,1.169,0,0,0,.81.809c3.156-.02,6.322.016,9.462-.248a4.415,4.415,0,0,0,3.8-4.565,3.979,3.979,0,0,0-3.513-4.17C307.014,425.249,305.143,425.16,303.292,424.962Zm-.174-11.047,0,.071c-1.289,0-2.583-.057-3.865.037-.352.026-.952.5-.961.777-.076,2.285-.059,4.574-.005,6.86a.967.967,0,0,0,.668.67c3.022-.093,6.066-.063,9.054-.451,2.174-.282,3.058-1.9,2.9-4.235a3.492,3.492,0,0,0-3.428-3.449C306.027,414.04,304.57,414,303.118,413.915Z" transform="translate(-118.519 -279.813)"/>
    <path class="cls-1" d="M298.32,370.355c-.029.473-.084.945-.085,1.418-.005,5.991-.03,11.982.021,17.972.01,1.155-.241,1.63-1.5,1.568-2.041-.1-2.045-.022-2.045-2.047,0-7.655.026-15.31-.027-22.965-.009-1.245.34-1.563,1.6-1.67a4.1,4.1,0,0,1,4.358,2.345c3.589,5.932,7.4,11.728,11.138,17.573a2.473,2.473,0,0,0,1.054.968c.027-.471.077-.942.077-1.412,0-5.991.041-11.982-.028-17.972-.015-1.3.5-1.508,1.613-1.464,1.848.073,1.861.017,1.861,1.46,0,7.9-.021,15.809.025,23.714.007,1.181-.422,1.379-1.511,1.49-1.956.2-3.054-.563-4.074-2.2-3.745-6.032-7.648-11.967-11.5-17.936-.2-.309-.438-.593-.658-.888Z" transform="translate(-118.519 -279.813)"/>
    <path class="cls-1" d="M130.427,399.454c0,3.366-.028,6.733.017,10.1.013.992-.249,1.413-1.324,1.393-3.116-.058-6.234-.045-9.351-.006-.92.012-1.253-.325-1.25-1.233q.03-10.224.005-20.448c0-1.108.353-1.669,1.6-1.641,2.949.068,5.9.057,8.852,0,1.113-.02,1.467.455,1.46,1.483C130.413,392.555,130.426,396,130.427,399.454Z" transform="translate(-118.519 -279.813)"/>
    <path class="cls-1" d="M270.989,399.352c0-3.371.028-6.742-.016-10.112-.014-1.071.347-1.485,1.443-1.466,2.954.051,5.909.039,8.864.006,1.093-.012,1.584.38,1.58,1.532q-.042,10.237,0,20.475c0,.943-.362,1.23-1.254,1.221-3.162-.03-6.326-.035-9.488,0-.885.011-1.151-.325-1.143-1.173C271.007,406.343,270.989,402.847,270.989,399.352Z" transform="translate(-118.519 -279.813)"/>
    <path class="cls-1" d="M271.135,427.326c0-2.914.03-5.828-.018-8.741-.016-.97.3-1.337,1.286-1.324,3.038.039,6.078.032,9.116,0,.951-.009,1.326.336,1.321,1.321q-.047,8.8,0,17.608c0,.975-.35,1.32-1.319,1.307-3.038-.04-6.078-.046-9.116,0-.993.016-1.3-.345-1.284-1.31C271.165,433.237,271.136,430.281,271.135,427.326Z" transform="translate(-118.519 -279.813)"/>
    <path class="cls-1" d="M130.2,427.2c0,2.953-.028,5.906.016,8.859.014.969-.307,1.318-1.295,1.3q-4.428-.075-8.858,0c-.991.015-1.428-.271-1.422-1.337q.051-8.8.006-17.593c0-.912.237-1.375,1.267-1.359q4.553.071,9.108,0c.976-.016,1.2.407,1.189,1.272C130.185,421.289,130.2,424.242,130.2,427.2Z" transform="translate(-118.519 -279.813)"/>
    <path class="cls-1" d="M408.3,437.648c.824-2.158,1.5-3.972,2.208-5.778,2.484-6.381,5.007-12.747,7.439-19.148a2.191,2.191,0,0,1,2.5-1.745c2.71.15,2.229-.267,3.164,2.2q4.254,11.235,8.443,22.494c.211.562.4,1.132.692,1.959a21.3,21.3,0,0,1-3.42-.06c-.4-.069-.8-.763-.993-1.253-.726-1.854-1.389-3.734-2.026-5.62a1.411,1.411,0,0,0-1.566-1.082c-2.829.037-5.66.031-8.49,0a1.565,1.565,0,0,0-1.725,1.245c-.6,1.81-1.431,3.546-1.979,5.368a1.7,1.7,0,0,1-2.076,1.426C409.868,437.6,409.254,437.648,408.3,437.648Zm12.378-22.139-.4.067-4.13,11.078h8.646C423.426,422.806,422.235,419.087,420.677,415.509Z" transform="translate(-118.519 -279.813)"/>
    <path class="cls-1" d="M466.772,374.034c0-1.176,0-2.077,0-2.978q0-2.372,0-4.744a1.733,1.733,0,0,1,2.731-1.536,1.382,1.382,0,0,1,.415,1.046c.022,8.114,0,16.228.032,24.342,0,1.156-.66,1.161-1.457,1.118-.732-.04-1.708.292-1.588-1.061a4.922,4.922,0,0,0-.1-1,20.921,20.921,0,0,1-3.493,2.163,7.959,7.959,0,0,1-10.517-5.439,12.943,12.943,0,0,1,.979-10.142,7.731,7.731,0,0,1,12.071-2.317A9.651,9.651,0,0,0,466.772,374.034Zm.256,7.864a35.229,35.229,0,0,0-.744-3.869,4.765,4.765,0,0,0-3.889-3.605c-2.245-.363-4.221.224-5.378,2.264a10.4,10.4,0,0,0-.232,9.808,4.65,4.65,0,0,0,4.779,2.72,4.487,4.487,0,0,0,4.261-2.926A31.976,31.976,0,0,0,467.028,381.9Z" transform="translate(-118.519 -279.813)"/>
    <path class="cls-1" d="M152.95,368.678c-3.368,0-6.737.008-10.1,0-1.239,0-1.342-.184-.865-1.288a14.879,14.879,0,0,1,8.037-7.931,3.765,3.765,0,0,1,1.456-.235c3.909-.019,7.818.023,11.726-.034,1.083-.016,1.34.4,1.314,1.386-.057,2.161-.082,4.327.007,6.486.051,1.232-.288,1.684-1.591,1.65C159.605,368.621,156.277,368.679,152.95,368.678Z" transform="translate(-118.519 -279.813)"/>
    <path class="cls-1" d="M248.253,368.678c-3.37,0-6.741-.032-10.11.019-1.034.015-1.388-.327-1.362-1.361.059-2.328.047-4.66,0-6.989-.016-.868.289-1.16,1.157-1.153,4.036.034,8.074-.069,12.107.051,2.228.066,4.022,1.441,5.48,2.935a32.675,32.675,0,0,1,3.794,5.186c.634.98.371,1.3-.834,1.308C255.076,368.688,251.665,368.678,248.253,368.678Z" transform="translate(-118.519 -279.813)"/>
    <path class="cls-1" d="M366.45,435.358c-.368.3-.646.543-.936.768a8.885,8.885,0,0,1-9.119,1.58c-2.37-.921-3.4-2.876-3.32-5.456a5,5,0,0,1,3.7-4.934,41.888,41.888,0,0,1,5.606-1.087c.448-.08.914-.057,1.368-.11,1.886-.22,2.658-.812,2.789-2.118a2.571,2.571,0,0,0-2.167-3.026,14.476,14.476,0,0,0-4.791-.078,2.8,2.8,0,0,0-2.163,2.2,1.883,1.883,0,0,1-2.661.89c-.341-.18-.5-1.14-.388-1.665.55-2.527,2.484-3.688,4.773-4.178a12.605,12.605,0,0,1,6.778.291c2.769.943,3.823,2.327,3.859,5.248.041,3.245.01,6.491.014,9.737,0,1.128-.005,2.236,1.654,2.148.178-.009.614.7.541.983-.133.515-.455,1.228-.872,1.379a3.227,3.227,0,0,1-4.352-2.136A2.88,2.88,0,0,0,366.45,435.358Zm-.258-7.252c-2.365.425-4.652.778-6.912,1.259-2.024.431-3,1.712-2.844,3.48.137,1.546,1.533,2.709,3.486,2.708C364.613,435.549,367.338,432.889,366.192,428.106Z" transform="translate(-118.519 -279.813)"/>
    <path class="cls-1" d="M334.81,382.029c0,1.748-.007,3.5,0,5.243.005,1.039.187,1.908,1.543,1.953.244.008.692.626.652.907-.069.482-.339,1.17-.715,1.333a3.222,3.222,0,0,1-4.311-1.743c-.362-.784-.712-.613-1.214-.177a9.563,9.563,0,0,1-6.889,2.377,5.727,5.727,0,0,1-5.757-5.423,5.655,5.655,0,0,1,4.861-5.995c2.207-.4,4.437-.668,6.66-.973.894-.123,1.644-.443,1.834-1.4a2.832,2.832,0,0,0-.879-3.059c-1.455-1.123-5.181-1.326-6.668-.224a6.324,6.324,0,0,0-1.493,2.046c-.391.7-2.439,1.246-2.991.669a1.155,1.155,0,0,1-.145-.795c.2-2.434,1.653-4.14,4.315-4.88a12.192,12.192,0,0,1,8.188.445,4.309,4.309,0,0,1,2.957,4.082c.029,1.872.006,3.744.006,5.616Zm-3.3,1.484c.024-1.892.025-1.891-1.808-1.476-.2.046-.411.059-.615.1-1.83.347-3.682.611-5.483,1.074a2.624,2.624,0,0,0-2.047,2.652,2.654,2.654,0,0,0,1.792,2.946C326.973,390.534,331.461,387.622,331.514,383.512Z" transform="translate(-118.519 -279.813)"/>
    <path class="cls-1" d="M423.7,388.976a10,10,0,0,1-7.553,2.943,5.9,5.9,0,0,1-5.8-5.157,5.756,5.756,0,0,1,4.875-6.253c2.206-.4,4.436-.674,6.66-.971a1.989,1.989,0,0,0,1.952-1.62,2.518,2.518,0,0,0-1.062-2.858,6.48,6.48,0,0,0-6.438-.283,5.331,5.331,0,0,0-1.666,2.2,2.372,2.372,0,0,1-2.678.737c-.981-.269-.48-1.022-.379-1.54.467-2.407,2.149-3.685,4.357-4.307a12.228,12.228,0,0,1,7.952.407,4.6,4.6,0,0,1,3.176,4.592q.022,5.18,0,10.36c-.005,1.121.167,2,1.6,1.993.2,0,.6.57.568.831-.065.493-.257,1.22-.61,1.383a3.3,3.3,0,0,1-4.437-1.706A7.757,7.757,0,0,0,423.7,388.976Zm.121-5.572c.023-1.867.024-1.864-1.7-1.4-.239.064-.492.077-.736.124-1.87.358-3.763.63-5.6,1.108a2.991,2.991,0,0,0-.3,5.515A5.947,5.947,0,0,0,423.82,383.4Z" transform="translate(-118.519 -279.813)"/>
    <path class="cls-1" d="M490.089,385.532a8.078,8.078,0,0,1-6.463,6.225c-4.612.966-8.667-.94-10.444-5.206-2.144-5.146-.491-12.347,5.059-14.445,4.778-1.806,11.6.377,12.051,7.109.047.705.087,1.414.19,2.112.149,1-.269,1.317-1.242,1.309-3.871-.035-7.743-.015-11.615-.014-1.766,0-1.834.083-1.555,1.853a5.273,5.273,0,0,0,4.208,4.684c2.813.444,5.013-.554,6.24-2.83C487.122,385.212,487.814,385.049,490.089,385.532Zm-8.588-5.468c1.456,0,2.914-.031,4.369.012.864.025,1.264-.259,1.076-1.161-.621-2.988-2.157-4.688-5.471-4.717a5.638,5.638,0,0,0-5.4,4.8c-.083.751.149,1.085.932,1.071C478.5,380.044,480,380.063,481.5,380.064Z" transform="translate(-118.519 -279.813)"/>
    <path class="cls-1" d="M474.563,431.957a19.859,19.859,0,0,1-.982,2.214c-2.016,3.393-5.655,4.795-10.09,3.938a8.558,8.558,0,0,1-6.5-6.95c-.7-3.674-.287-7.109,2.114-10.14,3.958-5,13.192-3.791,15.046,2.3a32.889,32.889,0,0,1,.736,4.41c.147.923-.251,1.255-1.177,1.244-3.2-.035-6.405-.013-9.608-.013-.874,0-1.751.055-2.619-.014-1.068-.085-1.273.431-1.181,1.352.256,2.561,1.871,4.725,3.882,5.135,3.136.638,5.322-.283,6.777-2.857C471.533,431.571,472.44,431.386,474.563,431.957Zm-8.719-5.428v0h2.746c2.961,0,3.423-.824,1.945-3.473-.06-.108-.152-.2-.222-.3a5.413,5.413,0,0,0-6-1.979,6.079,6.079,0,0,0-3.922,4.769c-.056.829.416.984,1.083.982C462.932,426.525,464.388,426.529,465.844,426.529Z" transform="translate(-118.519 -279.813)"/>
    <path class="cls-1" d="M336.711,431.7c-.911,3.136-2.529,5.241-5.389,6.088-4.339,1.286-8.329.357-10.79-3.2-2.817-4.07-2.434-12.834,3.435-15.752,4.062-2.02,10.345-.684,11.987,3.709a24.436,24.436,0,0,1,.946,5.715c.022.188-.738.668-1.139.674-3.829.052-7.659.03-11.489.031-1.958,0-1.984.033-1.645,1.981.437,2.514,1.959,4.237,4,4.532,3.217.464,5.18-.453,6.518-2.929a1.943,1.943,0,0,1,1.207-.817A12.972,12.972,0,0,1,336.711,431.7Zm-8.609-5.163c1.369,0,2.739.01,4.108,0,1.345-.013,1.525-.266,1.16-1.572-.067-.24-.155-.473-.228-.711-.815-2.672-2.741-3.842-5.883-3.573a5.521,5.521,0,0,0-4.621,4.56c-.125.909.15,1.329,1.106,1.308C325.2,426.509,326.649,426.533,328.1,426.532Z" transform="translate(-118.519 -279.813)"/>
    <path class="cls-1" d="M376.04,391.923a8.336,8.336,0,0,1-8.793-7.458,12.579,12.579,0,0,1,1.706-9.445,8.995,8.995,0,0,1,9.35-3.521c4.122.995,6.485,3.5,7.052,7.4a14.08,14.08,0,0,1-.5,6.77C383.344,390,380.629,391.894,376.04,391.923Zm6.33-10.529-.254-.066c-.035-.707-.055-1.415-.109-2.12a5.481,5.481,0,0,0-4.542-5.085,5.239,5.239,0,0,0-5.989,2.937,10.771,10.771,0,0,0-.274,8.948,4.922,4.922,0,0,0,4.885,3.216c2.353.04,4.211-.773,5.051-3.057A46.612,46.612,0,0,0,382.371,381.394Z" transform="translate(-118.519 -279.813)"/>
    <path class="cls-1" d="M421.226,335.8a12.474,12.474,0,0,1-1.419,6.254c-1.872,3.55-5.079,4.59-8.808,4.4-5.317-.267-7.936-4.151-8.259-8.769a12.129,12.129,0,0,1,2.026-8.286c2.363-3.264,6.05-4.052,9.938-3.152a8.333,8.333,0,0,1,6.421,7.558C421.18,334.469,421.193,335.135,421.226,335.8Zm-3.178.517a35.7,35.7,0,0,0-.677-3.884,4.728,4.728,0,0,0-3.975-3.661c-2.384-.347-4.634-.1-5.954,2.3a10.463,10.463,0,0,0-.337,9.934,4.915,4.915,0,0,0,4.927,2.758c2.106-.027,3.905-.753,4.712-2.827A44.879,44.879,0,0,0,418.048,336.316Z" transform="translate(-118.519 -279.813)"/>
    <path class="cls-1" d="M382.545,438.5a32.388,32.388,0,0,1-4.479-.944c-2.236-.8-3.31-2.644-3.722-4.914-.124-.681.093-1,.831-1.015,1.228-.027,2.33-.172,2.627,1.587a2.973,2.973,0,0,0,2.559,2.128,8.442,8.442,0,0,0,5.5-.4,2.6,2.6,0,0,0,1.673-2.405,2.07,2.07,0,0,0-1.631-2.214c-2.184-.651-4.4-1.21-6.58-1.861-3.173-.946-4.4-2.2-4.474-4.449a5.437,5.437,0,0,1,4.3-5.685,10.138,10.138,0,0,1,8.327.778,5.64,5.64,0,0,1,2.543,3.415c.241.835.046,1.316-1,1.339-1.161.025-2.067-.033-2.486-1.4a2.621,2.621,0,0,0-1.4-1.31,6.484,6.484,0,0,0-5.542-.027,2.11,2.11,0,0,0-.071,3.979,39.187,39.187,0,0,0,5.2,1.624c.99.3,1.97.638,2.963.93,3.705,1.087,3.654,5.444,2.152,7.619a6.676,6.676,0,0,1-4.526,2.819c-.9.159-1.82.175-2.732.255Z" transform="translate(-118.519 -279.813)"/>
    <path class="cls-1" d="M329.863,325.845c2.974.17,5.564.874,7.14,3.652a.975.975,0,0,1,.125.215c.186.747.905,1.622-.053,2.2a2.36,2.36,0,0,1-2.912-.966,4.387,4.387,0,0,0-1.691-1.694,6.258,6.258,0,0,0-5.425,0,2.145,2.145,0,0,0-.273,3.9,12.134,12.134,0,0,0,2.886,1.095c1.784.541,3.587,1.02,5.383,1.521,3.917,1.091,3.91,5.773,1.883,8.159a7.76,7.76,0,0,1-6.389,2.533,17.326,17.326,0,0,1-5.115-.82c-2.282-.744-3.192-2.76-3.682-4.962-.134-.6.074-.967.773-.928a7.537,7.537,0,0,1,1.49.036,1.4,1.4,0,0,1,.894.733,4.088,4.088,0,0,0,3.635,3.109,8.215,8.215,0,0,0,5.1-.68A2.469,2.469,0,0,0,335,340.468a2.057,2.057,0,0,0-1.625-1.977c-2.353-.672-4.717-1.307-7.058-2.02-2.709-.825-4.038-2.313-4.064-4.419a5.585,5.585,0,0,1,3.986-5.441A33.233,33.233,0,0,1,329.863,325.845Z" transform="translate(-118.519 -279.813)"/>
    <path class="cls-1" d="M384.526,343.642a23.191,23.191,0,0,1-3.534,2.186c-2.45.968-6.635.707-8.062-2.013a10.589,10.589,0,0,1-1.067-4.408c-.145-3.908-.036-7.824-.066-11.737-.006-.851.3-1.177,1.155-1.207,2.2-.076,2.244-.068,2.245,2.117,0,3.5-.031,6.994.021,10.49.037,2.513.815,3.767,2.477,4.3a4.808,4.808,0,0,0,5.977-3.143,21.594,21.594,0,0,0,.634-4.788c.1-2.494.1-5,0-7.491-.054-1.335.569-1.519,1.655-1.486,1.652.05,1.7.038,1.7,1.533.006,5.37-.013,10.74.016,16.11.006,1.045-.077,1.727-1.437,1.715-1.222-.011-1.833-.3-1.624-1.607A2.16,2.16,0,0,0,384.526,343.642Z" transform="translate(-118.519 -279.813)"/>
    <path class="cls-1" d="M393.147,374.34c.454-.371.768-.616,1.07-.875a8.228,8.228,0,0,1,8.318-1.5,4.578,4.578,0,0,1,3.356,4.257c.2,4.694.188,9.4.269,14.1.012.685-.288,1-.975.963a7.227,7.227,0,0,0-1.123.005c-1.009.107-1.272-.369-1.264-1.317.032-3.745,0-7.49-.011-11.235-.005-1.709-.335-3.395-2.09-4.047a5.345,5.345,0,0,0-5.323.718,4.677,4.677,0,0,0-2.1,3.655c-.083,3.534-.108,7.069-.2,10.6-.014.521-.206,1.432-.452,1.481a8.348,8.348,0,0,1-2.576-.042c-.124-.015-.261-.573-.261-.879-.015-5.784,0-11.569-.019-17.353,0-.752.311-1.012,1.038-1.05C392.587,371.73,392.585,371.7,393.147,374.34Z" transform="translate(-118.519 -279.813)"/>
    <path class="cls-1" d="M305.92,328.607a39.04,39.04,0,0,1,4.239-2.249c2.808-1.082,6.4-.014,7.783,2.283a6,6,0,0,1,.876,2.8c.118,4.409.087,8.821.135,13.232.009.793-.274,1.173-1.091,1.107a5.131,5.131,0,0,0-1,0c-.947.11-1.22-.326-1.211-1.229.035-3.537.024-7.075,0-10.613a8.339,8.339,0,0,0-.207-2.225c-.822-2.865-3.938-3.783-6.8-2.065a5.543,5.543,0,0,0-2.724,5.018c-.048,3.246-.1,6.494-.006,9.737.043,1.445-.726,1.383-1.715,1.386-.965,0-1.636,0-1.618-1.344.073-5.534.049-11.07.013-16.605-.006-.987.226-1.507,1.313-1.376.868.1,2.087-.383,1.91,1.284A3.529,3.529,0,0,0,305.92,328.607Z" transform="translate(-118.519 -279.813)"/>
    <path class="cls-1" d="M356.519,378.276a28.661,28.661,0,0,1-2.94-.034,1.147,1.147,0,0,1-.73-.722,4.251,4.251,0,0,0-4.359-3.4,4.757,4.757,0,0,0-4.855,3.058,11.168,11.168,0,0,0,.14,9.524,4.475,4.475,0,0,0,4.69,2.41,4.569,4.569,0,0,0,4.113-3.152,2.129,2.129,0,0,1,2.976-1.444,1.2,1.2,0,0,1,.436,1.037,7.039,7.039,0,0,1-4.2,5.491,8.734,8.734,0,0,1-11.424-3.646,12.4,12.4,0,0,1-.857-8.741,9.1,9.1,0,0,1,5.043-6.565c3.476-1.7,8.613-.649,10.378,2.23A26.419,26.419,0,0,1,356.519,378.276Z" transform="translate(-118.519 -279.813)"/>
    <path class="cls-1" d="M141.506,403.223c0-2.2.028-4.407-.012-6.609a1.9,1.9,0,0,1,1.458-2.026,7.069,7.069,0,0,1,5.115.118,1.643,1.643,0,0,1,1.2,1.68q-.042,6.734,0,13.467c.005.81-.262,1.1-1.079,1.085q-2.8-.065-5.611,0c-.823.017-1.091-.311-1.079-1.105C141.528,407.629,141.506,405.426,141.506,403.223Z" transform="translate(-118.519 -279.813)"/>
    <path class="cls-1" d="M252.087,403.15c0-2.079.056-4.16-.023-6.237a1.941,1.941,0,0,1,1.368-2.107,7.345,7.345,0,0,1,5.129-.045,1.905,1.905,0,0,1,1.379,1.988q-.042,6.549,0,13.1c.005.879-.355,1.172-1.192,1.158-1.871-.032-3.743-.038-5.613,0-.835.017-1.071-.336-1.059-1.12C252.11,407.641,252.088,405.4,252.087,403.15Z" transform="translate(-118.519 -279.813)"/>
    <path class="cls-1" d="M241.058,403.215c0,2.2-.027,4.405.014,6.607.016.85-.266,1.208-1.141,1.185-1.536-.041-3.075-.026-4.612-.005-.752.01-1.143-.215-1.138-1.067.027-4.446,0-8.893.021-13.339.007-1.35,1.142-2.187,3.183-2.257a6.544,6.544,0,0,1,2.427.445,1.878,1.878,0,0,1,1.258,1.948C241.032,398.892,241.058,401.054,241.058,403.215Z" transform="translate(-118.519 -279.813)"/>
    <path class="cls-1" d="M167.166,403.161c0,2.2-.028,4.406.014,6.608.016.833-.2,1.21-1.113,1.172-1.535-.063-3.075-.04-4.613-.009-.8.016-1.106-.3-1.1-1.107.021-4.447.01-8.895.009-13.342a1.909,1.909,0,0,1,1.329-1.9,4.838,4.838,0,0,1,4.442.194,2.339,2.339,0,0,1,.987,1.65C167.233,398.669,167.165,400.917,167.166,403.161Z" transform="translate(-118.519 -279.813)"/>
    <path class="cls-1" d="M449.386,428.235c0-2-.034-4,.014-5.992.024-1.023-.371-1.486-1.39-1.386-.9.089-1.4-.152-1.366-1.215.027-.962.228-1.539,1.334-1.4s1.5-.377,1.423-1.454c-.066-.911.017-1.831-.021-2.745-.037-.87.344-1.224,1.192-1.154a6.323,6.323,0,0,0,1,0c.792-.061,1.151.266,1.115,1.083-.038.872-.01,1.747-.008,2.621,0,1.642.005,1.642,1.658,1.652,1.558.01,1.629.117,1.611,1.59-.009.758-.294,1.069-1.036,1.02-.373-.025-.751.022-1.123-.007-.8-.062-1.12.3-1.116,1.094.019,3.828-.008,7.657.023,11.485.01,1.228.58,1.683,2.083,1.743.635.025,1.188.012,1.155.878-.029.765.224,1.636-.956,1.818-3.056.469-5.6-.109-5.58-4.14.011-1.831,0-3.662,0-5.493Z" transform="translate(-118.519 -279.813)"/>
    <path class="cls-1" d="M342.469,336.047c0-1.87-.037-3.742.015-5.61.028-1.013-.325-1.494-1.368-1.376-1.148.131-1.412-.489-1.38-1.506.026-.827.4-1.163,1.151-1.067,1.321.168,1.684-.476,1.6-1.668-.064-.868.015-1.746-.019-2.617-.031-.8.309-1.159,1.1-1.126a8.241,8.241,0,0,0,1,0c.889-.071,1.317.274,1.26,1.216-.051.828-.015,1.662-.009,2.493.011,1.6.09,1.725,1.7,1.678,1.07-.031,1.661.208,1.566,1.443-.065.847-.393,1.153-1.227,1.175-2.038.053-2.038.083-2.038,2.08,0,3.242-.011,6.484.006,9.725.01,1.948.349,2.252,2.279,2.527a1.339,1.339,0,0,1,.909.834c.135.662.2,1.429-.716,1.76a4.052,4.052,0,0,1-5.676-3.231,4.329,4.329,0,0,1-.107-.739c-.009-1.995,0-3.989,0-5.984Z" transform="translate(-118.519 -279.813)"/>
    <path class="cls-1" d="M393.986,336.268c0-1.954-.033-3.91.014-5.863.023-.928-.229-1.377-1.252-1.361-1.363.022-1.925-.787-1.415-2.037a1.294,1.294,0,0,1,1.077-.5c1.31.125,1.7-.447,1.591-1.668-.081-.908.013-1.829-.024-2.743-.031-.752.273-1.079,1.022-1.023a5.218,5.218,0,0,0,1,0c.995-.118,1.337.319,1.275,1.29-.064.994.006,2-.019,2.993-.02.79.323,1.161,1.116,1.122.29-.014.586.03.872,0,.976-.115,1.32.288,1.3,1.275-.017.934-.263,1.346-1.279,1.337-2.007-.017-2.007.034-2.007,2.07,0,3.244,0,6.487,0,9.731,0,1.872.455,2.307,2.3,2.517a1.269,1.269,0,0,1,.906.785c.088.679.344,1.638-.745,1.818-3.2.53-5.616-.061-5.72-4-.051-1.911-.009-3.825-.009-5.738Z" transform="translate(-118.519 -279.813)"/>
    <path class="cls-1" d="M361.826,336.329c0-1.956-.042-3.913.017-5.868.031-1.021-.325-1.508-1.356-1.394-1.014.112-1.389-.283-1.407-1.332-.02-1.136.517-1.356,1.453-1.262.978.1,1.348-.371,1.3-1.327-.047-1,.021-2-.019-3-.033-.819.315-1.142,1.111-1.08a9.191,9.191,0,0,0,1.248,0c.717-.043.949.311.932.983-.027,1.081.018,2.165-.013,3.246-.023.831.274,1.266,1.162,1.178.33-.032.669.027,1-.01,1.039-.116,1.119.5,1.124,1.31.005.844-.167,1.4-1.167,1.286-.329-.036-.667.016-1-.008-.794-.059-1.125.276-1.12,1.087.022,3.787-.007,7.574.022,11.361.01,1.243.636,1.81,2.018,1.839.757.016,1.272.048,1.252,1.037-.019.932-.095,1.679-1.259,1.707-.54.013-1.081.074-1.62.055-2.268-.079-3.488-1.176-3.6-3.452-.1-2.117-.022-4.243-.022-6.364Z" transform="translate(-118.519 -279.813)"/>
    <path class="cls-1" d="M298.429,332.517c0,3.951-.031,7.9.02,11.853.014,1.1-.375,1.534-1.451,1.414a7,7,0,0,0-1.122-.006c-.807.041-1.1-.349-1.1-1.132q.019-12.1,0-24.205c0-.9.34-1.328,1.255-1.252.206.017.416,0,.624,0,1.732,0,1.768.033,1.769,1.723Q298.432,326.715,298.429,332.517Z" transform="translate(-118.519 -279.813)"/>
    <path class="cls-1" d="M432.8,377.861c0-3.95.047-7.9-.027-11.85-.025-1.31.639-1.4,1.625-1.37.941.027,1.781-.122,1.771,1.348q-.087,11.975,0,23.95c.01,1.446-.785,1.35-1.749,1.359s-1.669,0-1.644-1.337C432.848,385.928,432.8,381.894,432.8,377.861Z" transform="translate(-118.519 -279.813)"/>
    <path class="cls-1" d="M340.032,424.128c0-3.951.064-7.9-.032-11.853-.037-1.53.871-1.259,1.77-1.3.98-.048,1.6.011,1.585,1.345q-.1,11.978,0,23.957c.013,1.434-.7,1.368-1.69,1.393-1.059.027-1.693-.077-1.664-1.437C340.087,432.2,340.032,428.163,340.032,424.128Z" transform="translate(-118.519 -279.813)"/>
    <path class="cls-1" d="M350.341,424.317c0,3.99-.055,7.981.031,11.97.028,1.318-.61,1.4-1.6,1.372-.929-.03-1.783.162-1.771-1.332q.093-11.97,0-23.94c-.01-1.36.618-1.457,1.671-1.425.978.03,1.738-.062,1.7,1.386C350.276,416.335,350.341,420.327,350.341,424.317Z" transform="translate(-118.519 -279.813)"/>
    <path class="cls-1" d="M178.631,426.993c0-2.783-.006-5.566,0-8.349a1.95,1.95,0,0,1,2.007-2.169,2.1,2.1,0,0,1,2.229,2.144c.015,5.649,0,11.3.018,16.948,0,.874-.356,1.326-1.2,1.413-.495.051-.991.107-1.487.127-1.131.046-1.62-.434-1.59-1.64C178.678,432.644,178.63,429.818,178.631,426.993Z" transform="translate(-118.519 -279.813)"/>
    <path class="cls-1" d="M223.818,427.076q0,3.934,0,7.869c0,1.874-.1,1.984-1.906,2.141-1.943.169-2.266-.127-2.266-2.093q0-8.119,0-16.237c0-.891.142-1.8,1.114-1.984a3.756,3.756,0,0,1,2.3.257,2.222,2.222,0,0,1,.723,1.681C223.858,421.5,223.817,424.286,223.818,427.076Z" transform="translate(-118.519 -279.813)"/>
    <path class="cls-1" d="M439.205,421.257c.745-.788,1.285-1.4,1.877-1.966a2.675,2.675,0,0,1,1.122-.758c1.059-.224,2.147-.307,3.223-.447l.287,3.034a19.1,19.1,0,0,0-2.7.3,5.2,5.2,0,0,0-3.825,5.35c-.035,3.2-.072,6.4.016,9.6.038,1.4-.764,1.286-1.672,1.281s-1.689.145-1.67-1.272q.109-8.415,0-16.832c-.016-1.367.729-1.306,1.662-1.318s1.688.007,1.554,1.276A10.893,10.893,0,0,0,439.205,421.257Z" transform="translate(-118.519 -279.813)"/>
    <path class="cls-1" d="M253.117,431.282c0-1.536-.023-3.073.006-4.608a2.721,2.721,0,0,1,2.831-2.688c1.841-.083,3.175.759,3.23,2.343.117,3.359.085,6.724.024,10.085-.006.313-.635.85-1.006.879-1.362.107-2.737.022-4.107.051-.783.016-1-.376-.992-1.079.02-1.66.006-3.321.006-4.982Z" transform="translate(-118.519 -279.813)"/>
    <path class="cls-1" d="M142.136,431.327c0-1.578-.03-3.156.008-4.733.041-1.72,1.182-2.717,3.025-2.717,1.882,0,3.023.97,3.042,2.684.034,3.155,0,6.311.037,9.466.011.881-.346,1.174-1.186,1.147q-1.929-.061-3.861,0c-.821.025-1.1-.326-1.08-1.114.034-1.577.01-3.155.01-4.733Z" transform="translate(-118.519 -279.813)"/>
    <path class="cls-1" d="M363.023,381.722c0,2.745-.038,5.49.019,8.233.021,1.03-.307,1.381-1.35,1.351-1.939-.055-1.941,0-1.941-1.966,0-5.323.041-10.646-.029-15.968-.018-1.329.565-1.471,1.648-1.461,1.06.01,1.722.107,1.679,1.453C362.962,376.147,363.023,378.936,363.023,381.722Z" transform="translate(-118.519 -279.813)"/>
    <path class="cls-1" d="M352.58,336.145c0-2.748.036-5.5-.019-8.243-.02-1.014.277-1.4,1.337-1.373,1.957.05,1.959-.005,1.959,1.955,0,5.287-.043,10.575.031,15.861.019,1.328-.546,1.488-1.635,1.457-1.011-.029-1.756,0-1.7-1.416C352.653,341.643,352.58,338.893,352.58,336.145Z" transform="translate(-118.519 -279.813)"/>
    <path class="cls-1" d="M217.2,363.843c0-1.206.027-2.412-.009-3.617-.022-.75.267-1.054,1.021-1.025,1,.038,2-.062,2.989.05a1.244,1.244,0,0,1,.857.839c.069,2.534.031,5.071.047,7.607,0,.676-.251,1.023-.95.979-.083-.005-.166,0-.249,0-3.706.108-3.706.108-3.706-3.588Q217.2,364.466,217.2,363.843Z" transform="translate(-118.519 -279.813)"/>
    <path class="cls-1" d="M179.192,363.848c0-1.2.029-2.409-.01-3.611-.024-.742.239-1.065,1-1.036.995.037,2-.062,2.984.049a1.245,1.245,0,0,1,.859.839q.1,3.858,0,7.719c-.008.3-.577.58-.89.865-.023.021-.081,0-.122,0-3.819.2-3.819.2-3.819-3.584Q179.192,364.471,179.192,363.848Z" transform="translate(-118.519 -279.813)"/>
    <path class="cls-1" d="M174.169,363.944c0,1.121,0,2.243,0,3.364,0,.29.09.7-.062.85-1.065,1.066-2.415.374-3.634.448-.252.015-.776-.7-.788-1.086a60.391,60.391,0,0,1,.013-7.222c.191-2.129,2.023-.74,3.068-1.054.74-.222,1.5-.078,1.422,1.087C174.11,361.531,174.168,362.739,174.169,363.944Z" transform="translate(-118.519 -279.813)"/>
    <path class="cls-1" d="M231.7,363.991a33.2,33.2,0,0,1-.026,3.612c-.22,1.975-1.811.836-2.769,1.03-.714.145-1.773.35-1.762-1.039q.03-3.677,0-7.354c-.008-.758.31-1.043,1.038-1.033,4.33.06,3.419-.553,3.522,3.288C231.715,362.994,231.7,363.493,231.7,363.991Z" transform="translate(-118.519 -279.813)"/>
    <path class="cls-1" d="M189.194,368.352c0-3.041-.018-5.727.031-8.412,0-.242.421-.5.686-.7.109-.082.323-.023.489-.029,3.329-.116,3.216-.11,3.37,3.2.1,2.159-.059,3.9-2.542,4.571A8.77,8.77,0,0,0,189.194,368.352Z" transform="translate(-118.519 -279.813)"/>
    <path class="cls-1" d="M212.139,368.16c-1.531-.842-2.84-1.523-4.1-2.286a1.276,1.276,0,0,1-.45-.934c-.046-1.576-.008-3.154-.027-4.731-.008-.671.257-1.02.948-.995.041,0,.083,0,.124,0,4.329.052,3.411-.543,3.5,3.293C212.173,364.322,212.139,366.141,212.139,368.16Z" transform="translate(-118.519 -279.813)"/>
    <path class="cls-1" d="M198.113,362.435c0-3.228,0-3.228,3.18-3.227,1.962,0,1.962,0,1.962,1.976,0,1.205-.016,2.411,0,3.616.012.684-.273,1.005-.964.966-.29-.016-.582,0-.873,0C198.113,365.768,198.113,365.768,198.113,362.435Z" transform="translate(-118.519 -279.813)"/>
    <path class="cls-1" d="M355.98,321.095c-.14.537-.182,1.474-.438,1.537a8.512,8.512,0,0,1-2.587.049c-.139-.01-.328-.439-.353-.688-.055-.536.018-1.084-.028-1.621-.085-.995.356-1.292,1.319-1.276C355.856,319.128,355.857,319.083,355.98,321.095Z" transform="translate(-118.519 -279.813)"/>
    <path class="cls-1" d="M359.751,366.332c0-1.683,0-1.683,1.708-1.68,1.565,0,1.565,0,1.565,1.717,0,1.845,0,1.845-1.728,1.838C359.75,368.2,359.75,368.2,359.751,366.332Z" transform="translate(-118.519 -279.813)"/>
    <path class="cls-1" d="M190.624,383.319a7.705,7.705,0,0,1,4.629-5.18c5.167-2.108,10.222-1.957,14.946,1.231a6.929,6.929,0,0,1,1.929,2.38c.651,1.158.347,1.564-.979,1.566q-7.8.013-15.6,0Z" transform="translate(-118.519 -279.813)"/>
  </g>
</svg>
