<svg id="Capa_1" data-name="Capa 1" xmlns="http://www.w3.org/2000/svg" viewBox="0 0 803.341 331.295">
  <defs>
    <style>
      .cls-1 {
        fill: #f2e02d;
      }

      .cls-2 {
        fill: #313f8d;
      }
    </style>
  </defs>
  <title>qqqq</title>
  <g>
    <rect class="cls-1" x="387.15" y="2.63" width="206.309" height="29.35"/>
    <g>
      <path class="cls-2" d="M7198.261,6985.5a4.969,4.969,0,0,0,2.147.558c2.036,0,2.888-1.486,2.888-3.975V6965.41h6.959V6982.9c0,5.942-2.591,8.876-7.848,8.876a14.451,14.451,0,0,1-4.4-.779Z" transform="translate(-6808.266 -6960.512)"/>
      <path class="cls-2" d="M7228.655,6987.063c0,1.561.111,3.12.223,4.271h-5.923c-.074-.892-.223-1.782-.223-2.674-1.925,2.154-3.442,3.119-5.774,3.119-3.405,0-5.849-2.451-5.849-6.165,0-4.308,3.221-6.61,9.921-6.61h1.7v-.595c0-1.226-1-2.637-3.627-2.637a10.973,10.973,0,0,0-5.553,1.819l-.223-4.791a20.364,20.364,0,0,1,7.219-1.263c6.774,0,8.106,3.194,8.106,7.168Zm-5.923-5.088h-.777c-2.961,0-4.923.929-4.923,3.194a2.079,2.079,0,0,0,2.295,2.377c3.072,0,3.405-3.12,3.405-4.939Z" transform="translate(-6808.266 -6960.512)"/>
      <path class="cls-2" d="M7230.361,6963.479h6.663v5.57h-6.663Zm0,8.5h6.663v19.35h-6.663Z" transform="translate(-6808.266 -6960.512)"/>
      <path class="cls-2" d="M7238.729,6976.144a30.316,30.316,0,0,0-.223-4.159h6.256a27.82,27.82,0,0,1,.148,3.23h.074a5.439,5.439,0,0,1,5.441-3.677,5.264,5.264,0,0,1,5.294,3.231,6.357,6.357,0,0,1,5.774-3.231c3.109,0,5.664,1.746,5.664,5.905v13.891H7260.5v-11.625c0-1.856-.555-2.748-1.888-2.748-1.925,0-2.332,1.745-2.332,3.194v11.179h-6.663v-11.625c0-1.856-.556-2.748-1.813-2.748-1.666,0-2.406,1.745-2.406,3.751v10.622h-6.663Z" transform="translate(-6808.266 -6960.512)"/>
      <path class="cls-2" d="M7274.31,6983.5c.185,3.12,2.332,4.049,4.812,4.049a15.673,15.673,0,0,0,5.627-1.522l.148,4.642a23.452,23.452,0,0,1-6.737,1.114c-7.811.037-10.069-5.236-10.069-10.213,0-5.312,3.146-10.028,8.959-10.028,6.033,0,8.884,4.791,8.884,10.065v1.894Zm5.552-3.491v-.557c0-2.6-.7-3.825-2.7-3.825-1.888,0-3,1.708-3,4.382Z" transform="translate(-6808.266 -6960.512)"/>
      <path class="cls-2" d="M7294.637,6965.41h6.959v20.65h8.515v5.273h-15.474Z" transform="translate(-6808.266 -6960.512)"/>
      <path class="cls-2" d="M7327.253,6987.063c0,1.561.111,3.12.222,4.271h-5.923c-.074-.892-.222-1.782-.222-2.674-1.925,2.154-3.442,3.119-5.775,3.119-3.405,0-5.849-2.451-5.849-6.165,0-4.308,3.221-6.61,9.921-6.61h1.7v-.595c0-1.226-1-2.637-3.628-2.637a10.977,10.977,0,0,0-5.553,1.819l-.222-4.791a20.362,20.362,0,0,1,7.218-1.263c6.774,0,8.107,3.194,8.107,7.168Zm-5.923-5.088h-.777c-2.962,0-4.924.929-4.924,3.194a2.079,2.079,0,0,0,2.295,2.377c3.073,0,3.406-3.12,3.406-4.939Z" transform="translate(-6808.266 -6960.512)"/>
      <path class="cls-2" d="M7328.663,6977.592a53.7,53.7,0,0,0-.222-5.607h6.256a27.839,27.839,0,0,1,.147,3.23h.074a4.956,4.956,0,0,1,4.924-3.677,5.114,5.114,0,0,1,1.11.111v5.831a8.01,8.01,0,0,0-2-.223c-2.147,0-3.628,1.895-3.628,4.457v9.619h-6.663Z" transform="translate(-6808.266 -6960.512)"/>
      <path class="cls-2" d="M7346.509,6983.5c.185,3.12,2.332,4.049,4.812,4.049a15.673,15.673,0,0,0,5.627-1.522l.148,4.642a23.452,23.452,0,0,1-6.737,1.114c-7.811.037-10.069-5.236-10.069-10.213,0-5.312,3.146-10.028,8.959-10.028,6.033,0,8.884,4.791,8.884,10.065v1.894Zm5.552-3.491v-.557c0-2.6-.7-3.825-2.7-3.825-1.888,0-3,1.708-3,4.382Z" transform="translate(-6808.266 -6960.512)"/>
      <path class="cls-2" d="M7377.273,6987.917c0,1.151.074,2.266.148,3.417h-6.367c-.074-1.04-.185-2.08-.185-3.12h-.074c-1.407,2.6-3.109,3.417-5.108,3.417-5.071,0-7.219-4.568-7.219-10.437,0-4.53,2.073-9.656,6.886-9.656,2.554,0,3.961,1.04,5.33,3.269h.074c-.074-.817-.148-2.006-.148-3.454v-7.873h6.663Zm-9.254-.966c1.666,0,2.591-2.229,2.591-5.459s-.925-5.423-2.591-5.423c-1.962,0-2.592,2.191-2.592,5.423S7366.058,6986.951,7368.02,6986.951Z" transform="translate(-6808.266 -6960.512)"/>
      <path class="cls-2" d="M7387.791,6971.538c7.033,0,9.588,4.865,9.588,10.14s-2.555,10.1-9.588,10.1-9.588-4.828-9.588-10.1S7380.758,6971.538,7387.791,6971.538Zm0,15.711c2.258,0,2.628-2.749,2.628-5.571s-.37-5.608-2.628-5.608-2.628,2.785-2.628,5.608S7385.533,6987.249,7387.791,6987.249Z" transform="translate(-6808.266 -6960.512)"/>
    </g>
    <rect class="cls-1" x="561.656" y="293.465" width="241.685" height="30.859"/>
    <rect class="cls-1" x="0.487" y="174.079" width="297.924" height="32.295"/>
    <g>
      <path class="cls-2" d="M6810.783,7137.015h7.4c5.331,0,8.107,2.972,8.107,7.874s-2.776,7.91-8.107,7.91h-2.666v10.14h-4.738Zm6.515,12.145c2.961,0,4.257-1.448,4.257-4.271s-1.3-4.234-4.257-4.234h-1.777v8.5Z" transform="translate(-6808.266 -6960.512)"/>
      <path class="cls-2" d="M6826.148,7144.926a13.246,13.246,0,0,1,6.034-1.411c5.923,0,7.292,2.9,7.292,7.688v8.356a23.7,23.7,0,0,0,.259,3.38h-4.146a9.524,9.524,0,0,1-.259-2.6h-.074a6.126,6.126,0,0,1-5.331,2.9,5.477,5.477,0,0,1-5.7-5.607c0-5.2,4.22-6.5,10.032-6.5h.925v-.706c0-1.894-.925-3.64-3.554-3.64a8.777,8.777,0,0,0-5.22,1.857Zm9.032,8.653h-.407c-3.924,0-6.256.817-6.256,3.6a2.764,2.764,0,0,0,2.924,2.935c2.739,0,3.739-2.043,3.739-5.46Z" transform="translate(-6808.266 -6960.512)"/>
      <path class="cls-2" d="M6841.884,7135.084h4.59v27.854h-4.59Z" transform="translate(-6808.266 -6960.512)"/>
      <path class="cls-2" d="M6849.7,7144.926a13.246,13.246,0,0,1,6.034-1.411c5.923,0,7.292,2.9,7.292,7.688v8.356a23.7,23.7,0,0,0,.259,3.38h-4.146a9.524,9.524,0,0,1-.259-2.6h-.074a6.126,6.126,0,0,1-5.331,2.9,5.477,5.477,0,0,1-5.7-5.607c0-5.2,4.22-6.5,10.032-6.5h.925v-.706c0-1.894-.925-3.64-3.554-3.64a8.777,8.777,0,0,0-5.22,1.857Zm9.032,8.653h-.407c-3.924,0-6.256.817-6.256,3.6a2.764,2.764,0,0,0,2.924,2.935c2.739,0,3.739-2.043,3.739-5.46Z" transform="translate(-6808.266 -6960.512)"/>
      <path class="cls-2" d="M6877.944,7162.456a13.034,13.034,0,0,1-4.516.779c-6.293,0-8.958-4.419-8.958-9.842,0-5.46,2.813-9.879,9.217-9.879a12.5,12.5,0,0,1,4,.779l-.259,3.64a7.327,7.327,0,0,0-3.22-.928c-3.48,0-5,2.34-5,6.425,0,3.565,1.7,6.313,5.22,6.313a7.348,7.348,0,0,0,3.257-.928Z" transform="translate(-6808.266 -6960.512)"/>
      <path class="cls-2" d="M6878.835,7135.678h4.738v4.531h-4.738Zm.074,8.134h4.59v19.127h-4.59Z" transform="translate(-6808.266 -6960.512)"/>
      <path class="cls-2" d="M6893.681,7143.515c3.887,0,8.366,2.042,8.366,9.842,0,8.022-4.479,9.879-8.366,9.879s-8.4-1.856-8.4-9.879C6885.277,7145.557,6889.793,7143.515,6893.681,7143.515Zm0,16.453c2.961,0,3.627-3.417,3.627-6.611s-.666-6.574-3.627-6.574-3.665,3.38-3.665,6.574S6890.719,7159.968,6893.681,7159.968Z" transform="translate(-6808.266 -6960.512)"/>
      <path class="cls-2" d="M6926.372,7135.084v24.586a24.765,24.765,0,0,0,.148,3.269h-4.294a25.76,25.76,0,0,1-.148-2.971h-.111a5.136,5.136,0,0,1-5.072,3.268c-4.738,0-6.7-4.531-6.7-9.842,0-6.239,2.48-9.879,6.589-9.879a5.124,5.124,0,0,1,4.923,3.045h.074v-11.476Zm-8.218,24.771c2.7,0,3.627-2.934,3.627-6.536,0-3.714-1.036-6.426-3.554-6.426-2.554,0-3.442,2.489-3.442,6.314C6914.785,7157.628,6915.488,7159.855,6918.154,7159.855Z" transform="translate(-6808.266 -6960.512)"/>
      <path class="cls-2" d="M6942.292,7162.01a14.149,14.149,0,0,1-5.7,1.226c-6.145,0-8.811-4.419-8.811-9.582,0-5.72,3-10.139,7.848-10.139,4.109,0,7.626,2.414,7.626,10.213v.892h-11.031c0,3.269,1.3,5.236,4.849,5.236a7.56,7.56,0,0,0,5-1.485Zm-3.48-10.287c0-3.38-1.11-5.089-3.184-5.089-2.406,0-3.405,2.563-3.405,5.089Z" transform="translate(-6808.266 -6960.512)"/>
      <path class="cls-2" d="M6952.514,7137.015h7.552c5.331,0,7.773,2.006,7.773,6.389a5.78,5.78,0,0,1-4.294,5.979v.074a5.847,5.847,0,0,1,4.887,6.2c0,4.717-3.443,7.279-8.033,7.279h-7.885Zm4.59,10.845h2.443a3.62,3.62,0,0,0,3.7-3.862c0-2.191-1.555-3.491-3.813-3.491H6957.1Zm0,11.439h2.628a3.645,3.645,0,0,0,3.961-3.974c0-2.266-1.185-3.975-4.109-3.975h-2.48Z" transform="translate(-6808.266 -6960.512)"/>
      <path class="cls-2" d="M6984.131,7162.01a14.152,14.152,0,0,1-5.7,1.226c-6.145,0-8.81-4.419-8.81-9.582,0-5.72,3-10.139,7.848-10.139,4.109,0,7.626,2.414,7.626,10.213v.892h-11.031c0,3.269,1.3,5.236,4.849,5.236a7.56,7.56,0,0,0,5-1.485Zm-3.48-10.287c0-3.38-1.11-5.089-3.184-5.089-2.406,0-3.405,2.563-3.405,5.089Z" transform="translate(-6808.266 -6960.512)"/>
      <path class="cls-2" d="M6986.8,7135.084h4.59v27.854h-4.59Z" transform="translate(-6808.266 -6960.512)"/>
      <path class="cls-2" d="M6994.13,7135.084h4.59v27.854h-4.59Z" transform="translate(-6808.266 -6960.512)"/>
      <path class="cls-2" d="M7001.942,7144.926a13.246,13.246,0,0,1,6.034-1.411c5.923,0,7.292,2.9,7.292,7.688v8.356a23.7,23.7,0,0,0,.259,3.38h-4.146a9.524,9.524,0,0,1-.259-2.6h-.074a6.126,6.126,0,0,1-5.331,2.9,5.477,5.477,0,0,1-5.7-5.607c0-5.2,4.22-6.5,10.032-6.5h.925v-.706c0-1.894-.925-3.64-3.554-3.64a8.777,8.777,0,0,0-5.22,1.857Zm9.032,8.653h-.407c-3.924,0-6.256.817-6.256,3.6a2.764,2.764,0,0,0,2.924,2.935c2.739,0,3.739-2.043,3.739-5.46Z" transform="translate(-6808.266 -6960.512)"/>
      <path class="cls-2" d="M7016.715,7158.481a12.23,12.23,0,0,0,4.775,1.263c1.666,0,2.961-.408,2.961-1.894,0-.743-.37-1.449-2.036-2.414l-1.888-1.114c-1.925-1.151-4.035-2.377-4.035-5.386,0-2.637,2.554-5.422,6.589-5.422a15.247,15.247,0,0,1,4.775.779l-.259,3.565a10.486,10.486,0,0,0-4.035-.854c-1.851,0-2.628.705-2.628,1.856,0,1.04.814,1.6,2.147,2.451l2.258,1.448c2.369,1.523,3.554,2.6,3.554,4.829,0,3.527-2.961,5.645-7.107,5.645a15.38,15.38,0,0,1-5.293-.929Z" transform="translate(-6808.266 -6960.512)"/>
      <path class="cls-2" d="M7048.925,7156.7h-8.885l-1.851,6.239h-4.738l8.662-25.924h5.183l8.329,25.924h-4.887Zm-1-3.64-3.258-12.107h-.074l-3.554,12.107Z" transform="translate(-6808.266 -6960.512)"/>
      <path class="cls-2" d="M7055.777,7146.969a26.219,26.219,0,0,0-.148-3.157h4.146c.037,1.151.148,2.34.148,3.491H7060c.556-1.485,2-3.788,4.85-3.788a4.906,4.906,0,0,1,.777.111v4.308a4.749,4.749,0,0,0-1.3-.186c-1.888,0-3.96,1.151-3.96,4.717v10.474h-4.59Z" transform="translate(-6808.266 -6960.512)"/>
      <path class="cls-2" d="M7068.068,7139.875l4.59-1.412v5.349h3.813v3.38h-3.812v9.916c0,2.043.74,2.637,2.073,2.637a3.6,3.6,0,0,0,1.74-.408v3.269a7.06,7.06,0,0,1-3.072.631c-3.406,0-5.331-1.56-5.331-5.57v-10.474h-3.036v-3.38h3.036Z" transform="translate(-6808.266 -6960.512)"/>
      <path class="cls-2" d="M7091.1,7162.01a14.152,14.152,0,0,1-5.7,1.226c-6.145,0-8.81-4.419-8.81-9.582,0-5.72,3-10.139,7.848-10.139,4.109,0,7.626,2.414,7.626,10.213v.892h-11.031c0,3.269,1.3,5.236,4.849,5.236a7.56,7.56,0,0,0,5-1.485Zm-3.48-10.287c0-3.38-1.11-5.089-3.184-5.089-2.406,0-3.405,2.563-3.405,5.089Z" transform="translate(-6808.266 -6960.512)"/>
      <path class="cls-2" d="M7092.8,7158.481a12.23,12.23,0,0,0,4.775,1.263c1.666,0,2.961-.408,2.961-1.894,0-.743-.37-1.449-2.036-2.414l-1.888-1.114c-1.925-1.151-4.035-2.377-4.035-5.386,0-2.637,2.554-5.422,6.589-5.422a15.247,15.247,0,0,1,4.775.779l-.259,3.565a10.486,10.486,0,0,0-4.035-.854c-1.851,0-2.628.705-2.628,1.856,0,1.04.814,1.6,2.147,2.451l2.258,1.448c2.369,1.523,3.554,2.6,3.554,4.829,0,3.527-2.961,5.645-7.107,5.645a15.38,15.38,0,0,1-5.293-.929Z" transform="translate(-6808.266 -6960.512)"/>
    </g>
    <g>
      <path class="cls-2" d="M7385.022,7282a16.193,16.193,0,0,1-4.7.779c-8.181,0-11.624-6.239-11.624-13.259,0-8.1,4.7-13.185,11.438-13.185a11.692,11.692,0,0,1,4.887.929v3.193a8.877,8.877,0,0,0-4.85-1.3c-4.22,0-8.069,3.38-8.069,9.693,0,6.686,2.665,11.105,8.292,11.105a9.264,9.264,0,0,0,4.627-1.226Z" transform="translate(-6808.266 -6960.512)"/>
      <path class="cls-2" d="M7390.615,7255.782v3.714h-3.405v-3.714Zm-3.258,7.8h3.109v18.941h-3.109Z" transform="translate(-6808.266 -6960.512)"/>
      <path class="cls-2" d="M7406.607,7278.438c0,1.374.111,2.748.148,4.085h-3l-.111-2.822h-.074a4.849,4.849,0,0,1-4.775,3.082c-3.295,0-5.516-1.894-5.516-6.054v-13.147h3.109V7275.8c0,3.009,1.11,4.309,3.109,4.309,2.443,0,4-1.708,4-5.125v-11.4h3.109Z" transform="translate(-6808.266 -6960.512)"/>
      <path class="cls-2" d="M7422.714,7279.031c0,1.151.11,2.34.147,3.491h-3l-.111-2.785h-.074a5.342,5.342,0,0,1-4.96,3.045c-3.887,0-6.516-3.193-6.516-9.73s2.629-9.73,6.516-9.73a5.2,5.2,0,0,1,4.813,2.859h.074v-11.513h3.109Zm-7.256-13.185c-2.851,0-4.146,2.451-4.146,7.205s1.295,7.205,4.146,7.205,4.146-2.451,4.146-7.205S7418.309,7265.847,7415.458,7265.847Z" transform="translate(-6808.266 -6960.512)"/>
      <path class="cls-2" d="M7425.678,7264.881a10.028,10.028,0,0,1,5.33-1.56,7.148,7.148,0,0,1,5.034,1.782c.814.817,1.629,1.969,1.629,4.643v9.88a28.591,28.591,0,0,0,.148,2.9h-2.813l-.185-2.562h-.074a5.7,5.7,0,0,1-5.294,2.822c-3.109,0-5.441-1.819-5.441-5.459,0-3.677,2.406-6.389,8.884-6.389h1.814v-.854a4.669,4.669,0,0,0-.7-3.046,3.823,3.823,0,0,0-3.146-1.188,6.675,6.675,0,0,0-4.85,1.969Zm9.032,8.356a18.734,18.734,0,0,0-2.185-.074c-3.664,0-5.4,1.746-5.4,3.937,0,2.006,1.036,3.306,3.184,3.306,2.7,0,4.405-2.191,4.405-4.791Z" transform="translate(-6808.266 -6960.512)"/>
      <path class="cls-2" d="M7453.666,7279.031c0,1.151.111,2.34.148,3.491h-3l-.11-2.785h-.074a5.344,5.344,0,0,1-4.961,3.045c-3.887,0-6.515-3.193-6.515-9.73s2.628-9.73,6.515-9.73a5.2,5.2,0,0,1,4.813,2.859h.074v-11.513h3.109Zm-7.255-13.185c-2.851,0-4.146,2.451-4.146,7.205s1.3,7.205,4.146,7.205,4.146-2.451,4.146-7.205S7449.261,7265.847,7446.411,7265.847Z" transform="translate(-6808.266 -6960.512)"/>
      <path class="cls-2" d="M7476.361,7279.031c0,1.151.111,2.34.148,3.491h-3l-.11-2.785h-.074a5.344,5.344,0,0,1-4.961,3.045c-3.887,0-6.515-3.193-6.515-9.73s2.628-9.73,6.515-9.73a5.2,5.2,0,0,1,4.813,2.859h.074v-11.513h3.109Zm-7.255-13.185c-2.851,0-4.146,2.451-4.146,7.205s1.3,7.205,4.146,7.205,4.146-2.451,4.146-7.205S7471.956,7265.847,7469.106,7265.847Z" transform="translate(-6808.266 -6960.512)"/>
      <path class="cls-2" d="M7480.918,7273.98c0,4.382,1.7,6.425,5.146,6.425a8.036,8.036,0,0,0,4.331-1.56l.147,2.822a12.717,12.717,0,0,1-5.293,1.114c-5,0-7.589-3.788-7.589-9.73s2.591-9.73,7.292-9.73c4.258,0,6.627,3.417,6.627,8.987v1.672Zm7.552-2.377c0-3.937-1.222-5.905-3.7-5.905-2,0-3.776,1.485-3.85,5.905Z" transform="translate(-6808.266 -6960.512)"/>
      <path class="cls-2" d="M7500.5,7256.6h5.034l6.478,20.613h.074l6.626-20.613h4.887v25.924h-3.109v-22.358h-.074l-7.329,22.358h-2.369l-7.034-22.358h-.073v22.358H7500.5Z" transform="translate(-6808.266 -6960.512)"/>
      <path class="cls-2" d="M7529.05,7273.98c0,4.382,1.7,6.425,5.146,6.425a8.036,8.036,0,0,0,4.331-1.56l.147,2.822a12.717,12.717,0,0,1-5.293,1.114c-5,0-7.589-3.788-7.589-9.73s2.591-9.73,7.292-9.73c4.258,0,6.627,3.417,6.627,8.987v1.672Zm7.552-2.377c0-3.937-1.222-5.905-3.7-5.905-2,0-3.776,1.485-3.85,5.905Zm-3.295-16.008h3.665l-3.776,5.386h-2.369Z" transform="translate(-6808.266 -6960.512)"/>
      <path class="cls-2" d="M7544.821,7272.346l-5.034-8.765h3.405l3.628,6.834,3.628-6.834h3.405l-5.256,8.877,5.737,10.064h-3.554l-4.183-7.837-3.961,7.837h-3.406Z" transform="translate(-6808.266 -6960.512)"/>
      <path class="cls-2" d="M7558.483,7255.782v3.714h-3.405v-3.714Zm-3.258,7.8h3.109v18.941h-3.109Z" transform="translate(-6808.266 -6960.512)"/>
      <path class="cls-2" d="M7572.255,7266.887a6.96,6.96,0,0,0-3.591-.892c-3.035,0-5.183,2.117-5.183,7.242,0,4.383,2.073,6.871,5.108,6.871a8.168,8.168,0,0,0,3.813-1l.147,2.86a11.178,11.178,0,0,1-3.961.816c-5.627,0-8.366-4.2-8.366-9.545,0-6.128,3.184-9.916,8.44-9.916a9.213,9.213,0,0,1,3.739.742Z" transform="translate(-6808.266 -6960.512)"/>
      <path class="cls-2" d="M7580.216,7263.321c5,0,7.589,3.788,7.589,9.73s-2.591,9.73-7.589,9.73-7.589-3.788-7.589-9.73S7575.219,7263.321,7580.216,7263.321Zm0,16.936c2.962,0,4.331-2.451,4.331-7.205s-1.369-7.205-4.331-7.205-4.331,2.451-4.331,7.205S7577.255,7280.257,7580.216,7280.257Z" transform="translate(-6808.266 -6960.512)"/>
    </g>
  </g>
</svg>
