<svg id="Capa_1" data-name="Capa 1" xmlns="http://www.w3.org/2000/svg" viewBox="0 0 863.367 464.621">
  <defs>
    <style>
      .cls-1 {
        fill: #fff;
      }
    </style>
  </defs>
  <title>Sin tulo-4 copia</title>
  <g>
    <g>
      <path class="cls-1" d="M6797.776,6947.788c34.271,0,46.717,23.7,46.717,49.388s-12.446,49.207-46.717,49.207-46.717-23.519-46.717-49.207S6763.505,6947.788,6797.776,6947.788Zm0,76.523c11,0,12.807-13.387,12.807-27.136s-1.8-27.317-12.807-27.317-12.807,13.568-12.807,27.317S6786.773,7024.312,6797.776,7024.312Z" transform="translate(-6744.386 -6894.055)"/>
      <path class="cls-1" d="M6849,6977.276a260.469,260.469,0,0,0-1.082-27.317H6878.4a135.872,135.872,0,0,1,.721,15.739h.361c2.706-7.418,8.478-17.91,23.99-17.91a24.888,24.888,0,0,1,5.411.543v28.4a39,39,0,0,0-9.74-1.086c-10.461,0-17.677,9.227-17.677,21.709v46.855H6849Z" transform="translate(-6744.386 -6894.055)"/>
      <path class="cls-1" d="M6965.705,7046.563c0-7.055.361-12.844.722-16.824h-.361c-6.674,10.854-13.528,15.92-25.974,15.92-23.448,0-33.549-24.965-33.549-47.036,0-28.583,10.461-50.835,35.173-50.835,9.74,0,18.038,3.979,24.892,16.644h.361c0-5.065.541-10.131.9-14.473h31.385c-.542,2.532-1.083,8.5-1.083,20.8v112.525h-32.467Zm-12.626-22.975c8.117,0,12.626-10.674,12.626-26.413,0-16.282-5.411-26.594-13.708-26.594-9.019,0-11.544,10.493-11.544,26.594C6940.453,7012.915,6943.519,7023.589,6953.079,7023.589Z" transform="translate(-6744.386 -6894.055)"/>
      <path class="cls-1" d="M7090.523,7028.653a90.778,90.778,0,0,0,1.082,15.559h-30.483a135.753,135.753,0,0,1-.722-15.739h-.361c-1.8,5.065-8.117,17.91-26.515,17.91-16.053,0-28.5-9.588-28.5-30.393v-66.031h32.467v56.624c0,9.045,2.706,13.387,9.2,13.387,9.379,0,11.364-8.5,11.364-15.558v-54.453h32.467Z" transform="translate(-6744.386 -6894.055)"/>
      <path class="cls-1" d="M7125.334,7006.04c.9,15.2,11.364,19.719,23.449,19.719,8.838,0,19.48-3.979,27.417-7.417l.721,22.614a114.407,114.407,0,0,1-32.828,5.427c-38.059.181-49.062-25.508-49.062-49.75,0-25.87,15.332-48.845,43.65-48.845,29.4,0,43.29,23.337,43.29,49.025v9.227Zm27.056-17v-2.714c0-12.664-3.427-18.634-13.167-18.634-9.2,0-14.61,8.322-14.61,21.348Z" transform="translate(-6744.386 -6894.055)"/>
      <path class="cls-1" d="M7184.316,7016.895c5.051,2.533,13.167,6.694,24.531,6.694,8.838,0,13.348-2.353,13.348-6.694,0-3.256-2.525-5.065-10.462-7.96l-9.921-3.618c-14.971-5.427-19.3-14.653-19.3-26.593,0-16.645,10.642-30.936,39.142-30.936a84.021,84.021,0,0,1,26.153,4.342l-1.082,23.518c-5.952-2.713-14.79-5.789-23.088-5.789-6.312,0-11.544,1.81-11.544,6.875,0,3.256,3.066,5.427,10.822,8.321l10.823,3.98c11.724,4.342,18.759,9.95,18.759,26.412,0,19.538-12.446,30.936-40.224,30.936-10.281,0-23.448-2.352-28.679-4.342Z" transform="translate(-6744.386 -6894.055)"/>
      <path class="cls-1" d="M7248.707,6949.959h16.054v-19.9l32.468-10.131v30.031h18.218v22.07h-18.218v40.162c0,7.96,4.87,11.4,10.642,11.4,3.247,0,6.133-.543,7.576-1.447l.9,22.07a105.639,105.639,0,0,1-21.465,2.171c-17.856,0-30.122-10.131-30.122-27.679v-46.675h-16.054Z" transform="translate(-6744.386 -6894.055)"/>
      <path class="cls-1" d="M7399.861,7023.407c0,7.6.541,15.2,1.082,20.8h-28.86c-.36-4.342-1.082-8.684-1.082-13.025-9.38,10.492-16.774,15.2-28.139,15.2-16.594,0-28.5-11.94-28.5-30.03,0-20.986,15.692-32.2,48.341-32.2h8.3v-2.895c0-5.97-4.87-12.845-17.677-12.845-10.1,0-20.2,4.523-27.056,8.865l-1.083-23.338a99.2,99.2,0,0,1,35.174-6.15c33.008,0,39.5,15.558,39.5,34.915ZM7371,6998.623h-3.788c-14.43,0-23.989,4.522-23.989,15.558,0,8.322,4.509,11.578,11.183,11.578,14.972,0,16.595-15.2,16.595-24.061Z" transform="translate(-6744.386 -6894.055)"/>
    </g>
    <g>
      <path class="cls-1" d="M6815.528,7165.869c5.051,2.533,13.167,6.694,24.531,6.694,8.838,0,13.348-2.353,13.348-6.694,0-3.256-2.525-5.065-10.462-7.96l-9.92-3.618c-14.971-5.427-19.3-14.653-19.3-26.593,0-16.645,10.642-30.936,39.142-30.936a84.025,84.025,0,0,1,26.154,4.342l-1.082,23.518c-5.952-2.713-14.791-5.789-23.088-5.789-6.313,0-11.544,1.81-11.544,6.875,0,3.256,3.066,5.427,10.822,8.321l10.823,3.98c11.724,4.342,18.759,9.95,18.759,26.412,0,19.538-12.446,30.936-40.224,30.936-10.281,0-23.448-2.352-28.679-4.342Z" transform="translate(-6744.386 -6894.055)"/>
      <path class="cls-1" d="M6888.037,7057.5H6920.5v27.137h-32.467Zm0,41.429H6920.5v94.253h-32.467Z" transform="translate(-6744.386 -6894.055)"/>
      <path class="cls-1" d="M6928.8,7118.109a175.611,175.611,0,0,0-1.082-19.176H6958.2a135.872,135.872,0,0,1,.721,15.739h.361c1.8-5.066,8.117-17.91,26.515-17.91,16.053,0,28.5,9.588,28.5,30.393v66.031H6981.83v-56.624c0-9.046-2.706-13.388-8.838-13.388-8.117,0-11.725,8.5-11.725,18.271v51.74H6928.8Z" transform="translate(-6744.386 -6894.055)"/>
      <path class="cls-1" d="M7030.529,7121h-16.594v-22.07h16.594v-13.388c0-21.89,12.266-30.211,31.205-30.211a93.767,93.767,0,0,1,21.1,2.17l-.721,23.156a21.82,21.82,0,0,0-8.3-1.809c-7.4,0-10.822,3.98-10.822,12.3v7.779h17.676V7121H7063v72.183h-32.468Z" transform="translate(-6744.386 -6894.055)"/>
      <path class="cls-1" d="M7124.5,7096.763c34.271,0,46.717,23.7,46.717,49.388s-12.446,49.207-46.717,49.207-46.717-23.519-46.717-49.207S7090.231,7096.763,7124.5,7096.763Zm23.629-37.448-18.037,26.413h-18.4l8.658-26.413ZM7124.5,7173.286c11,0,12.807-13.387,12.807-27.136s-1.8-27.317-12.807-27.317S7111.7,7132.4,7111.7,7146.15,7113.5,7173.286,7124.5,7173.286Z" transform="translate(-6744.386 -6894.055)"/>
      <path class="cls-1" d="M7175.728,7118.109a175.611,175.611,0,0,0-1.082-19.176h30.483a135.862,135.862,0,0,1,.722,15.739h.36c1.8-5.066,8.117-17.91,26.516-17.91,16.053,0,28.5,9.588,28.5,30.393v66.031h-32.468v-56.624c0-9.046-2.705-13.388-8.838-13.388-8.117,0-11.725,8.5-11.725,18.271v51.74h-32.467Z" transform="translate(-6744.386 -6894.055)"/>
      <path class="cls-1" d="M7269.521,7057.5h32.467v27.137h-32.467Zm0,41.429h32.467v94.253h-32.467Z" transform="translate(-6744.386 -6894.055)"/>
      <path class="cls-1" d="M7378.285,7124.984c-3.427-1.447-8.838-3.98-15.873-3.98-11.9,0-21.284,7.417-21.284,25.146,0,14.11,4.87,24.966,20.743,24.966a45.761,45.761,0,0,0,18.037-4.161l.9,23.518c-4.87,2.353-18.579,4.885-26.154,4.885-34.271,0-46.717-23.519-46.717-49.207s12.445-49.388,46.717-49.388c13.708,0,21.465,3.075,25.252,4.522Z" transform="translate(-6744.386 -6894.055)"/>
      <path class="cls-1" d="M7464.864,7172.382c0,7.6.541,15.2,1.082,20.8h-28.859c-.361-4.342-1.082-8.684-1.082-13.025-9.38,10.492-16.775,15.2-28.139,15.2-16.595,0-28.5-11.94-28.5-30.03,0-20.986,15.692-32.2,48.34-32.2h8.3v-2.895c0-5.97-4.87-12.845-17.677-12.845-10.1,0-20.2,4.523-27.057,8.865l-1.082-23.338a99.2,99.2,0,0,1,35.173-6.15c33.009,0,39.5,15.558,39.5,34.915ZM7436,7147.6h-3.788c-14.43,0-23.99,4.522-23.99,15.558,0,8.322,4.51,11.578,11.184,11.578,14.971,0,16.595-15.2,16.595-24.061Z" transform="translate(-6744.386 -6894.055)"/>
    </g>
    <g>
      <path class="cls-1" d="M6965.082,7219.2h33.911l16.233,64.584h.361l15.873-64.584h31.746l-30.122,94.253h-38.42Z" transform="translate(-6744.386 -6894.055)"/>
      <path class="cls-1" d="M7090.081,7275.276c.9,15.2,11.364,19.719,23.449,19.719,8.838,0,19.48-3.979,27.417-7.417l.721,22.614a114.407,114.407,0,0,1-32.828,5.427c-38.059.181-49.062-25.508-49.062-49.75,0-25.87,15.332-48.845,43.65-48.845,29.4,0,43.29,23.337,43.29,49.025v9.227Zm27.056-17v-2.714c0-12.664-3.427-18.634-13.167-18.634-9.2,0-14.61,8.322-14.61,21.348Z" transform="translate(-6744.386 -6894.055)"/>
      <path class="cls-1" d="M7151.228,7246.513a260.469,260.469,0,0,0-1.082-27.317h30.483a135.872,135.872,0,0,1,.721,15.739h.361c2.706-7.418,8.478-17.91,23.99-17.91a24.891,24.891,0,0,1,5.411.543v28.4a39,39,0,0,0-9.74-1.086c-10.461,0-17.677,9.227-17.677,21.709v46.855h-32.467Z" transform="translate(-6744.386 -6894.055)"/>
      <path class="cls-1" d="M7213.457,7239.457a148.043,148.043,0,0,0-1.082-20.262h30.483a135.881,135.881,0,0,1,.721,15.739h.361c1.8-5.066,8.116-17.91,26.515-17.91,10.1,0,20.021,3.075,25.794,15.738,6.133-9.769,14.79-15.738,28.138-15.738,15.151,0,27.6,8.5,27.6,28.764v67.66h-32.468v-56.624c0-9.046-2.705-13.388-9.2-13.388-9.379,0-11.363,8.5-11.363,15.559v54.453h-32.467v-56.624c0-9.046-2.706-13.388-8.839-13.388-8.116,0-11.725,8.5-11.725,18.271v51.74h-32.467Z" transform="translate(-6744.386 -6894.055)"/>
      <path class="cls-1" d="M7403.21,7217.024c34.271,0,46.717,23.7,46.717,49.388s-12.445,49.207-46.717,49.207-46.717-23.519-46.717-49.207S7368.939,7217.024,7403.21,7217.024Zm0,76.523c11,0,12.807-13.387,12.807-27.136s-1.8-27.317-12.807-27.317-12.807,13.568-12.807,27.317S7392.207,7293.548,7403.21,7293.548Z" transform="translate(-6744.386 -6894.055)"/>
      <path class="cls-1" d="M7454.437,7238.371a175.611,175.611,0,0,0-1.082-19.176h30.483a135.881,135.881,0,0,1,.721,15.739h.361c1.8-5.066,8.116-17.91,26.515-17.91,16.054,0,28.5,9.588,28.5,30.393v66.031h-32.467v-56.624c0-9.046-2.706-13.388-8.839-13.388-8.116,0-11.725,8.5-11.725,18.271v51.74h-32.467Z" transform="translate(-6744.386 -6894.055)"/>
      <path class="cls-1" d="M7540.112,7219.2h16.053v-19.9l32.468-10.131V7219.2h18.218v22.07h-18.218v40.162c0,7.96,4.87,11.4,10.643,11.4,3.246,0,6.132-.543,7.575-1.447l.9,22.07a105.656,105.656,0,0,1-21.465,2.171c-17.857,0-30.123-10.131-30.123-27.679v-46.675h-16.053Z" transform="translate(-6744.386 -6894.055)"/>
    </g>
  </g>
</svg>
